<?xml version="1.0" encoding="utf-8"?>
<!-- Generator: Adobe Illustrator 27.5.0, SVG Export Plug-In . SVG Version: 6.00 Build 0)  -->
<svg version="1.1" id="Lager_1" xmlns="http://www.w3.org/2000/svg" xmlns:xlink="http://www.w3.org/1999/xlink" x="0px" y="0px"
	 viewBox="0 0 64 64" enable-background="new 0 0 64 64" xml:space="preserve">
<g>
	<path fill="none" d="M0,64.28C0,42.84,0,21.4,0-0.04c21.44,0,42.87,0,64.31,0c0,21.44,0,42.87,0,64.31
		C42.87,64.28,21.44,64.28,0,64.28z M35.8,53.65c0-0.37,0-0.67,0-0.97c0-2.98,0.01-5.97-0.01-8.95c0-0.49,0.14-0.74,0.63-0.87
		c1.11-0.31,2.2-0.71,3.32-1.02c0.45-0.12,0.94-0.09,1.48-0.13c-1.94,3.8-1.8,6.18,0.4,8.27c1.98,1.89,4.91,2.32,7.17,0.81
		c3.59-2.4,3.68-5.55,1.48-9.05c2.03-0.15,3.64,0.87,5.47,1.37c0,3.53,0,7.02,0,10.5c1.35,0,2.61,0,3.87,0
		c0.03-0.12,0.06-0.2,0.06-0.27c0-4.14-0.01-8.29,0.02-12.43c0-0.53-0.28-0.64-0.67-0.76c-2.22-0.73-4.44-1.5-6.67-2.21
		c-0.48-0.15-0.64-0.36-0.64-0.87c0.02-4.14,0-8.29,0.02-12.43c0-0.34,0.11-0.71,0.27-1.02c1.14-2.27,2.31-4.52,3.45-6.78
		c1.24-2.46,2.44-4.95,3.67-7.42c0.22-0.45,0.25-0.71-0.33-0.93c-0.77-0.29-1.5-0.69-2.23-1.09c-0.44-0.24-0.68-0.18-0.91,0.28
		c-2.5,5.01-5.02,10.01-7.5,15.03c-0.27,0.55-0.39,1.22-0.4,1.83c-0.04,3.65-0.02,7.29-0.02,10.94c0,0.29,0,0.57,0,1
		c-1.37-0.7-2.64-0.84-4-0.1c0-10.23,0-20.31,0-30.45c-1.52,0-2.98-0.03-4.44,0.02c-0.28,0.01-0.62,0.26-0.8,0.49
		c-2.39,2.97-4.75,5.96-7.14,8.92c-0.2,0.25-0.61,0.47-0.93,0.48c-1.32,0.05-2.65,0.02-3.98,0.02c-1.17,0-2.35,0-3.62,0
		c0.15-0.35,0.24-0.57,0.34-0.79c1.14-2.57,0.92-5.07-0.49-7.45c-2.25-3.83-7.65-4.85-11.49-2.24c-3.6,2.45-4.33,7.92-1.49,11.46
		c0.51,0.63,0.42,0.83-0.23,1.27c-3.35,2.26-5.4,5.34-5.48,9.49c-0.06,3.37-0.04,6.74,0.01,10.11c0.01,0.46,0.28,1,0.6,1.35
		c0.89,0.98,1.83,1.92,2.81,2.81c0.44,0.4,0.55,0.81,0.55,1.37c-0.02,5.14-0.01,10.28-0.01,15.41c0,0.3,0,0.59,0,0.91
		c1.36,0,2.64,0,3.94,0c0.02-0.16,0.04-0.26,0.04-0.37c0-5.88,0.01-11.77-0.02-17.65c0-0.33-0.21-0.73-0.45-0.99
		c-0.95-1.01-1.93-1.98-2.92-2.94c-0.43-0.41-0.61-0.85-0.6-1.45c0.03-2.68,0.1-5.36-0.01-8.04c-0.17-4.32,3.19-8.34,8.28-8.3
		c5.22,0.04,10.44,0.02,15.66-0.01c0.37,0,0.87-0.13,1.09-0.38c1.22-1.42,2.38-2.9,3.55-4.36c1.04-1.3,2.07-2.62,3.22-4.08
		c0.02,0.35,0.04,0.5,0.04,0.65c0,8.48,0,16.96,0.01,25.44c0,0.52-0.18,0.72-0.65,0.86c-2.18,0.69-4.34,1.44-6.53,2.12
		c-0.59,0.18-0.82,0.42-0.81,1.08c0.04,3.89,0.02,7.79,0.02,11.68c0,0.26,0,0.52,0,0.8C33.19,53.65,34.43,53.65,35.8,53.65z
		 M23.81,59.6c0-11.29,0-22.51,0-33.73c-1.32,0-2.58,0-3.87,0c0,11.26,0,22.48,0,33.73C21.24,59.6,22.5,59.6,23.81,59.6z"/>
	<path fill="#BBDCFE" d="M35.8,53.65c-1.37,0-2.61,0-3.98,0c0-0.28,0-0.54,0-0.8c0-3.89,0.02-7.79-0.02-11.68
		c-0.01-0.66,0.23-0.89,0.81-1.08c2.18-0.68,4.35-1.43,6.53-2.12c0.46-0.15,0.65-0.35,0.65-0.86c-0.02-8.48-0.01-16.96-0.01-25.44
		c0-0.15-0.02-0.31-0.04-0.65c-1.15,1.46-2.18,2.78-3.22,4.08c-1.17,1.47-2.33,2.94-3.55,4.36c-0.22,0.26-0.72,0.38-1.09,0.38
		c-5.22,0.02-10.44,0.05-15.66,0.01c-5.09-0.04-8.46,3.98-8.28,8.3c0.11,2.68,0.04,5.36,0.01,8.04c-0.01,0.61,0.17,1.04,0.6,1.45
		c1,0.96,1.98,1.93,2.92,2.94c0.24,0.25,0.45,0.65,0.45,0.99c0.03,5.88,0.02,11.77,0.02,17.65c0,0.11-0.02,0.21-0.04,0.37
		c-1.3,0-2.58,0-3.94,0c0-0.32,0-0.62,0-0.91c0-5.14-0.01-10.28,0.01-15.41c0-0.56-0.11-0.97-0.55-1.37
		C6.44,41,5.49,40.06,4.6,39.08c-0.32-0.35-0.59-0.89-0.6-1.35c-0.05-3.37-0.08-6.74-0.01-10.11c0.08-4.15,2.13-7.23,5.48-9.49
		c0.66-0.44,0.74-0.64,0.23-1.27c-2.84-3.54-2.11-9,1.49-11.46c3.84-2.62,9.24-1.59,11.49,2.24c1.4,2.38,1.62,4.88,0.49,7.45
		c-0.1,0.22-0.19,0.44-0.34,0.79c1.28,0,2.45,0,3.62,0c1.33,0,2.65,0.03,3.98-0.02c0.32-0.01,0.73-0.23,0.93-0.48
		c2.39-2.96,4.75-5.96,7.14-8.92c0.19-0.24,0.53-0.48,0.8-0.49c1.46-0.05,2.91-0.02,4.44-0.02c0,10.14,0,20.21,0,30.45
		c1.36-0.74,2.63-0.6,4,0.1c0-0.43,0-0.71,0-1c0-3.65-0.02-7.29,0.02-10.94c0.01-0.61,0.13-1.29,0.4-1.83
		c2.48-5.02,5-10.02,7.5-15.03c0.23-0.46,0.46-0.52,0.91-0.28c0.72,0.4,1.46,0.8,2.23,1.09c0.57,0.22,0.55,0.48,0.33,0.93
		c-1.23,2.47-2.43,4.95-3.67,7.42c-1.14,2.27-2.31,4.52-3.45,6.78c-0.15,0.31-0.27,0.68-0.27,1.02c-0.02,4.14,0,8.29-0.02,12.43
		c0,0.5,0.16,0.71,0.64,0.87c2.23,0.71,4.45,1.47,6.67,2.21c0.39,0.13,0.67,0.23,0.67,0.76c-0.02,4.14-0.01,8.29-0.02,12.43
		c0,0.08-0.03,0.15-0.06,0.27c-1.27,0-2.52,0-3.87,0c0-3.48,0-6.97,0-10.5c-1.83-0.51-3.44-1.53-5.47-1.37
		c2.2,3.5,2.11,6.64-1.48,9.05c-2.26,1.51-5.18,1.08-7.17-0.81c-2.19-2.09-2.33-4.48-0.4-8.27c-0.55,0.04-1.04,0.01-1.48,0.13
		c-1.12,0.3-2.2,0.7-3.32,1.02c-0.49,0.14-0.63,0.38-0.63,0.87c0.02,2.98,0.01,5.97,0.01,8.95C35.8,52.98,35.8,53.28,35.8,53.65z
		 M15.95,15.89c2.38,0.02,3.88-1.46,3.92-3.86c0.03-2.32-1.52-4.09-3.63-4.11c-2.7-0.03-4.28,1.37-4.3,3.82
		C11.92,14.25,13.48,15.87,15.95,15.89z M45.8,43.72c-1.33,0-2.04,0.66-2.05,1.92c-0.01,1.37,0.71,2.11,2.07,2.1
		c1.22-0.01,1.91-0.73,1.92-1.99C47.74,44.42,47.07,43.72,45.8,43.72z"/>
	<path fill="#BBDCFE" d="M23.81,59.6c-1.31,0-2.57,0-3.87,0c0-11.26,0-22.47,0-33.73c1.3,0,2.55,0,3.87,0
		C23.81,37.09,23.81,48.3,23.81,59.6z"/>
</g>
</svg>
